<mxfile host="app.diagrams.net" modified="2023-09-27T13:39:37.951Z" agent="Mozilla/5.0 (Windows NT 10.0; Win64; x64; rv:109.0) Gecko/20100101 Firefox/117.0" version="21.8.2" etag="pPWk3lIVj4JlhKcYYd2S" type="github">
  <diagram name="Page-1" id="M9egRGRCFl2_E4pEztr0">
    <mxGraphModel>
      <root>
        <mxCell id="0" />
        <mxCell id="1" parent="0" />
        <mxCell id="2" value="Data Input" style="shape=cylinder3;boundedLbl=1;backgroundOutline=1;size=10;strokeWidth=2;whiteSpace=wrap;" vertex="1" parent="1">
          <mxGeometry y="48" width="90" height="65" as="geometry" />
        </mxCell>
        <mxCell id="3" value="Data Processing" style="rhombus;strokeWidth=2;whiteSpace=wrap;" vertex="1" parent="1">
          <mxGeometry x="140" width="160" height="160" as="geometry" />
        </mxCell>
        <mxCell id="4" value="Data Output" style="shape=cylinder3;boundedLbl=1;backgroundOutline=1;size=10;strokeWidth=2;whiteSpace=wrap;" vertex="1" parent="1">
          <mxGeometry x="350" y="46" width="103" height="67" as="geometry" />
        </mxCell>
        <mxCell id="5" value="" style="curved=1;startArrow=none;endArrow=block;exitX=1;exitY=0.4944872342623197;entryX=0;entryY=0.5008854389190673;" edge="1" parent="1" source="2" target="3">
          <mxGeometry relative="1" as="geometry">
            <Array as="points" />
          </mxGeometry>
        </mxCell>
        <mxCell id="6" value="" style="curved=1;startArrow=none;endArrow=block;exitX=1.0017708778381347;exitY=0.5008854389190673;entryX=0.002750878195160801;entryY=0.5095771675679222;" edge="1" parent="1" source="3" target="4">
          <mxGeometry relative="1" as="geometry">
            <Array as="points" />
          </mxGeometry>
        </mxCell>
      </root>
    </mxGraphModel>
  </diagram>
</mxfile>
